<svg width="97" height="96" viewBox="0 0 97 96" fill="none" xmlns="http://www.w3.org/2000/svg">
<path d="M94.1569 49.2852C94.7586 49.235 95.3776 49.2517 95.9819 49.2418L96.0033 66.5081C96.0055 70.0958 96.3092 73.8978 95.662 77.4294C95.1499 80.2234 94.0633 82.8252 92.5659 85.2332C89.3509 90.4038 84.1787 93.6677 78.3125 95.019L76.7818 95.2963C76.6827 93.3603 76.7476 91.4065 76.7506 89.4673L76.7332 80.7849L76.698 54.1315C82.2341 51.5771 88.0347 49.6751 94.1569 49.2852Z" fill="white"/>
<path d="M0.0793342 49.6244C7.25279 49.5276 12.7899 50.9793 19.2455 54.0552C19.3246 55.579 19.2884 57.1241 19.2954 58.6504L19.3001 67.9118L19.3135 95.1484C14.3563 94.3179 9.90603 92.5862 6.31553 88.9354C6.14666 88.7614 5.98072 88.5846 5.81771 88.4051C5.65459 88.2257 5.49445 88.0436 5.3373 87.8589C5.18015 87.6741 5.02605 87.4869 4.875 87.2971C4.72406 87.1074 4.57623 86.9153 4.4315 86.7208C4.28666 86.5262 4.1451 86.3294 4.00681 86.1301C3.86853 85.9309 3.73353 85.7295 3.60181 85.526C3.46998 85.3224 3.34154 85.1168 3.2165 84.909C3.09158 84.7011 2.97 84.4913 2.85176 84.2795C2.73363 84.0679 2.61896 83.8543 2.50775 83.6388C2.39654 83.4233 2.28885 83.206 2.18467 82.987C2.0806 82.768 1.98012 82.5473 1.8832 82.325C1.78629 82.1027 1.69307 81.8789 1.60353 81.6535C1.51389 81.4282 1.42799 81.2014 1.34584 80.9732C1.26357 80.7451 1.18511 80.5157 1.11047 80.2851C1.0357 80.0543 0.964804 79.8225 0.897773 79.5895C0.830624 79.3564 0.767283 79.1223 0.707752 78.8873C-0.313889 74.7472 0.0744115 70.2657 0.0636889 66.0266C0.0367357 60.5591 0.0419514 55.0917 0.0793342 49.6244Z" fill="white"/>
<path d="M19.0084 0.316528L19.2162 0.317582C19.3011 0.486684 19.3001 0.437995 19.3103 0.601296C19.3938 1.93811 19.292 3.32538 19.2966 4.6694L19.3085 14.3142L19.2349 41.7701C12.1203 44.6229 8.23359 45.7896 0.486556 45.9513L0.155912 45.9172L0.0815559 45.8099C-0.0276043 44.3142 0.0571218 42.774 0.0629226 41.2734L0.0627482 33.8166L0.051322 26.0882C0.0427087 23.4986 -0.0682107 20.8687 0.42011 18.3123C0.494524 17.9239 0.578665 17.5378 0.672532 17.1537C0.766517 16.7697 0.870111 16.3883 0.983315 16.0094C1.09652 15.6307 1.21927 15.2549 1.35158 14.8823C1.48388 14.5097 1.6255 14.1408 1.77644 13.7754C1.92738 13.4099 2.08746 13.0485 2.25667 12.6912C2.42589 12.3339 2.60407 11.9811 2.79122 11.6328C2.97825 11.2845 3.17402 10.9412 3.37851 10.6027C3.583 10.2644 3.79593 9.93141 4.0173 9.60375C7.52607 4.38604 12.9396 1.48495 19.0084 0.316528Z" fill="white"/>
<path d="M76.7211 0.204346C81.5078 0.597393 86.4251 3.33923 89.733 6.72706C89.8941 6.88972 90.0526 7.05495 90.2085 7.22277C90.3642 7.39046 90.5173 7.56068 90.6676 7.73341C90.818 7.90603 90.9655 8.08105 91.1102 8.25847C91.2549 8.43589 91.3968 8.6156 91.5358 8.79759C91.6747 8.97958 91.8106 9.1638 91.9436 9.35025C92.0766 9.53657 92.2066 9.72501 92.3337 9.91556C92.4606 10.106 92.5844 10.2985 92.7053 10.493C92.8261 10.6875 92.9437 10.8839 93.0581 11.0822C93.1726 11.2805 93.2838 11.4806 93.3919 11.6825C93.4999 11.8844 93.6047 12.088 93.7062 12.2932C93.8076 12.4984 93.9059 12.7052 94.0008 12.9137C94.0956 13.122 94.187 13.3319 94.2752 13.5432C94.3632 13.7546 94.4478 13.9673 94.5292 14.1812C94.6104 14.3953 94.6882 14.6107 94.7626 14.8272C94.8369 15.0438 94.9077 15.2615 94.9751 15.4803C95.0425 15.6991 95.1063 15.9189 95.1666 16.1398C96.4055 20.733 96.0219 26.9934 96.0142 31.8195C96.0388 36.5509 96.0247 41.2823 95.9718 46.0136C89.0793 45.8057 83.0605 44.1758 76.7897 41.3535C76.7044 36.4332 76.751 31.5022 76.7517 26.5805L76.7166 13.3255C76.7571 8.95187 76.7586 4.57813 76.7211 0.204346Z" fill="white"/>
<path d="M50.0095 0.0389257C57.6043 -0.0405274 65.207 0.0252135 72.8029 0.0315416C72.9228 7.62318 72.8621 15.2296 72.846 22.8228L72.8562 39.5229C72.3371 39.2452 71.8237 38.9575 71.3158 38.66C70.8079 38.3625 70.3059 38.0552 69.8099 37.7382C69.3138 37.4213 68.824 37.095 68.3405 36.7591C67.8571 36.4232 67.3803 36.0782 66.9102 35.7239C66.44 35.3697 65.9769 35.0065 65.5208 34.6344C65.0647 34.2622 64.616 33.8814 64.1745 33.492C63.7331 33.1026 63.2993 32.7048 62.8734 32.2985C62.4473 31.8923 62.0292 31.478 61.6192 31.0557C55.303 24.6102 51.1268 16.7299 50.1894 7.68119C49.9264 5.14432 49.9862 2.58512 50.0095 0.0389257Z" fill="white"/>
<path d="M72.7554 56.0941L72.8501 56.1277C73.0094 56.5846 72.8343 63.2472 72.8326 64.4226L72.7865 95.445C69.8703 95.3819 66.9456 95.4447 64.0284 95.4477C59.5177 95.4208 55.007 95.421 50.4962 95.448C50.3401 95.4566 50.2192 95.4396 50.067 95.405C49.8242 94.9043 49.978 93.7338 49.9777 93.1525C49.9759 88.6796 50.4031 84.5297 51.8072 80.2553C52.1829 79.0736 52.6153 77.9131 53.1045 76.7737C53.5936 75.6343 54.1371 74.5215 54.735 73.4353C58.6841 66.3787 65.5259 59.7403 72.7554 56.0941Z" fill="white"/>
<path d="M23.3679 0.0217285L46.0367 0.0299924C46.1573 3.02882 46.1414 6.03837 45.7356 9.01699C44.6895 16.6928 41.1301 23.4973 36.1755 29.3485C32.4247 33.507 28.2179 36.7505 23.3679 39.5254V0.0217285Z" fill="white"/>
<path d="M23.3611 56.1244C24.1423 56.4728 24.9189 57.0281 25.6462 57.4818C29.1246 59.6504 32.214 62.1486 35.0361 65.1279C40.8946 71.3126 44.9627 79.0232 45.9453 87.5444C46.2478 90.1671 46.2285 92.824 46.1569 95.459C45.2077 95.5402 44.2035 95.4709 43.2483 95.4623L37.9636 95.4152C33.0998 95.3893 28.2361 95.3953 23.3725 95.4331L23.3611 56.1244Z" fill="white"/>
<path d="M18.8584 49.7966C19.5724 49.754 20.304 49.7618 21.0194 49.7711C27.5967 49.8576 34.3496 51.9033 39.0254 56.7275C43.2785 61.1155 45.6004 66.7913 45.4998 72.9181C45.1588 72.6378 43.5687 69.8495 43.1647 69.2464C42.4296 68.1489 41.6511 67.083 40.8293 66.0488C36.5337 60.6847 31.0606 55.9248 24.9823 52.6979C23.0093 51.6505 20.9098 50.8745 18.9435 49.8421L18.8584 49.7966Z" fill="white"/>
<path d="M45.474 22.5039C45.5556 22.9442 45.5245 23.4382 45.5182 23.8857C45.4329 29.7953 42.7327 35.3458 38.5316 39.4276C33.3529 44.459 26.2808 45.8132 19.3289 45.716C19.4777 45.4892 21.6622 44.5822 22.0187 44.4122C24.6828 43.1417 27.2183 41.8036 29.6386 40.1112C30.0472 39.8269 30.4517 39.5368 30.852 39.2409C31.2522 38.945 31.6481 38.6434 32.0398 38.336C32.4313 38.0287 32.8184 37.7158 33.201 37.3973C33.5835 37.0788 33.9614 36.7549 34.3346 36.4256C34.7078 36.0962 35.0763 35.7615 35.4399 35.4215C35.8034 35.0816 36.162 34.7364 36.5157 34.386C36.8694 34.0357 37.2179 33.6804 37.5612 33.3201C37.9046 32.9596 38.2427 32.5943 38.5757 32.2243C38.9085 31.8542 39.2359 31.4794 39.5579 31.0998C39.8801 30.7202 40.1967 30.3361 40.5077 29.9475C40.8186 29.5588 41.1239 29.1657 41.4237 28.7682C41.7233 28.3707 42.0172 27.969 42.3052 27.5631C42.5934 27.1571 42.8756 26.7471 43.1518 26.3331C43.4281 25.919 43.6983 25.501 43.9625 25.0791C44.2267 24.6573 44.4849 24.2318 44.7368 23.8024C44.9888 23.3731 45.2345 22.9403 45.474 22.5039Z" fill="white"/>
<path d="M50.4933 22.485C51.1049 23.1264 51.709 24.5436 52.2292 25.3613C53.0207 26.6058 53.9487 27.7888 54.8643 28.9432C59.2822 34.5126 64.6901 39.3969 70.9761 42.7668C73.031 43.8684 75.1553 44.7551 77.2836 45.6932C76.2404 45.7482 75.1883 45.7848 74.1438 45.7583C67.3325 45.5851 60.769 42.4504 56.1092 37.5278C52.1875 33.3852 50.3527 28.1487 50.4933 22.485Z" fill="white"/>
<path d="M77.103 49.6527L77.1515 49.6469C77.1427 49.7711 75.6728 50.402 75.477 50.491C72.6279 51.7865 69.8464 53.1066 67.2622 54.8916C63.272 57.6479 59.8402 60.8308 56.6429 64.4626C55.6376 65.6045 54.6218 66.746 53.729 67.9798C53.0696 68.8912 52.4296 69.8311 51.8432 70.7912C51.4444 71.4446 51.0942 72.1502 50.6391 72.7652C50.6233 72.7867 50.6069 72.8078 50.5908 72.8291L50.5231 72.7723C50.49 72.6684 50.4702 72.5729 50.4675 72.4636C50.3622 68.1928 51.9652 63.4712 54.453 60.0153C55.1653 59.0262 56.0163 58.1225 56.8691 57.2531C56.9938 57.125 57.1199 56.9983 57.2473 56.8729C57.3746 56.7475 57.5034 56.6235 57.6334 56.5009C57.7634 56.3782 57.8947 56.257 58.0274 56.1372C58.16 56.0173 58.294 55.899 58.4292 55.7821C58.5643 55.6652 58.7007 55.5497 58.8384 55.4357C58.976 55.3217 59.1149 55.2091 59.255 55.098C59.3951 54.987 59.5363 54.8775 59.6787 54.7695C59.8212 54.6615 59.9647 54.5551 60.1093 54.4501C60.254 54.3452 60.3999 54.2418 60.5468 54.14C60.6938 54.0382 60.8418 53.938 60.9909 53.8394C61.1399 53.7407 61.29 53.6437 61.441 53.5483C61.5922 53.4529 61.7444 53.3591 61.8975 53.2669C62.0507 53.1748 62.2049 53.0843 62.36 52.9955C62.5151 52.9067 62.6711 52.8195 62.8281 52.7339C62.985 52.6485 63.1429 52.5647 63.3017 52.4826C63.4605 52.4005 63.6201 52.3201 63.7805 52.2414C63.9411 52.1628 64.1024 52.0858 64.2644 52.0106C64.4266 51.9354 64.5896 51.8618 64.7533 51.79C64.917 51.7183 65.0815 51.6483 65.2467 51.5801C65.4119 51.5119 65.5779 51.4455 65.7445 51.3809C65.9112 51.3162 66.0784 51.2534 66.2464 51.1923C66.4144 51.1313 66.5831 51.072 66.7523 51.0146C66.9215 50.9571 67.0914 50.9014 67.2619 50.8476C67.4322 50.7938 67.6032 50.7419 67.7748 50.6917C67.9465 50.6417 68.1186 50.5934 68.2911 50.5468C68.4637 50.5004 68.6368 50.4559 68.8103 50.4131C68.9839 50.3703 69.1579 50.3295 69.3324 50.2906C69.5068 50.2515 69.6816 50.2144 69.8569 50.1791C70.0321 50.1438 70.2077 50.1104 70.3836 50.0789C70.5596 50.0475 70.7358 50.0179 70.9123 49.9902C71.0889 49.9625 71.2658 49.9367 71.443 49.9128C71.6201 49.8889 71.7974 49.8669 71.9751 49.8467C73.6752 49.6498 75.3938 49.6671 77.103 49.6527Z" fill="white"/>
</svg>
